<svg width="45" height="45" viewBox="0 0 45 45" fill="none" xmlns="http://www.w3.org/2000/svg">
<circle cx="22.5" cy="22.5" r="22.5" fill="#F9FFCC"/>
<path d="M35.3929 23.6782H24.2302V26.9843C24.2302 27.687 23.659 28.2565 22.9542 28.2565C22.2494 28.2565 21.6781 27.687 21.6781 26.9843V17.8276C21.6781 17.1249 22.2494 16.5554 22.9542 16.5554C23.659 16.5554 24.2302 17.1249 24.2302 17.8276V21.1337H35.3929C35.4177 21.1337 35.4419 21.1348 35.4661 21.1359C35.4467 20.1229 35.3891 19.1111 35.282 18.1019C35.1242 16.6118 35.0171 14.5907 34.3204 13.2391C33.7749 12.1805 32.4687 11.4225 31.3746 11.0591C30.3005 10.7027 29.1612 10.5937 28.0315 10.51C24.0956 10.2185 20.1312 10.2024 16.2061 10.6195C14.5493 10.7955 12.772 11.1112 11.6133 12.305C10.5456 13.4055 10.2354 15.018 10.054 16.5388C9.61948 20.1841 9.64263 23.8752 9.96138 27.5329C10.1111 29.2491 10.3787 31.0801 11.5406 32.3544C12.9394 33.8881 15.2148 34.1817 17.2894 34.3186C21.221 34.5784 25.1789 34.624 29.0933 34.1758C29.7545 34.1001 30.4356 33.9992 31.0871 33.8279C32.0934 33.5633 33.0292 33.1312 33.7125 32.3657C34.7166 31.2411 34.9492 29.6457 35.1059 28.1475C35.261 26.6633 35.3827 25.1705 35.4392 23.6766C35.4236 23.6771 35.4085 23.6776 35.3929 23.6776V23.6782Z" fill="#22201F"/>
</svg>
