<svg width="172" height="26" viewBox="0 0 172 26" fill="none" xmlns="http://www.w3.org/2000/svg">
<path d="M40.8215 16.6553C40.8215 14.8614 43.5469 14.8614 43.5469 16.6553V25.0386H55.2075L54.2761 4.33919C54.1726 1.78626 52.4821 0.716797 50.0672 0.716797H34.3702C31.9552 0.716797 30.2303 1.78626 30.1268 4.33919L29.1953 25.0386H40.8215V16.6553ZM40.8215 7.92708C40.8215 6.13313 43.5469 6.13313 43.5469 7.92708V10.1005C43.5469 11.6875 40.8215 11.6875 40.8215 10.1005V7.92708Z" fill="currentColor"/>
<path d="M27.411 14.3634H15.4905V17.9047C15.4905 18.6573 14.8804 19.2674 14.1278 19.2674C13.3751 19.2674 12.765 18.6573 12.765 17.9047V8.09662C12.765 7.34397 13.3751 6.73392 14.1278 6.73392C14.8804 6.73392 15.4905 7.34397 15.4905 8.09662V11.6379H27.411C27.4375 11.6379 27.4633 11.6391 27.4892 11.6402C27.4685 10.5553 27.407 9.47141 27.2926 8.39044C27.1241 6.79429 27.0097 4.62948 26.2656 3.18167C25.6832 2.04781 24.2883 1.23593 23.1199 0.846668C21.9728 0.464879 20.7562 0.348158 19.5498 0.258461C15.3467 -0.0537549 11.1131 -0.0710044 6.92149 0.375757C5.15227 0.564351 3.25425 0.902441 2.01689 2.1812C0.876701 3.35992 0.545511 5.08717 0.351742 6.71609C-0.112269 10.6208 -0.0875446 14.5744 0.252845 18.4923C0.41269 20.3305 0.698457 22.2918 1.93927 23.6568C3.43307 25.2995 5.86295 25.614 8.07836 25.7607C12.2769 26.039 16.5036 26.0878 20.6837 25.6077C21.3898 25.5266 22.1171 25.4186 22.8129 25.2351C23.8875 24.9517 24.8868 24.4888 25.6165 23.6689C26.6888 22.4643 26.9372 20.7554 27.1045 19.1507C27.2701 17.5608 27.4001 15.9618 27.4604 14.3616C27.4438 14.3622 27.4277 14.3628 27.411 14.3628V14.3634Z" fill="currentColor"/>
<path d="M106.79 8.3591C106.621 6.76295 106.507 4.59814 105.763 3.15034C105.18 2.01647 103.785 1.20459 102.617 0.815906C101.47 0.434117 100.253 0.317396 99.0469 0.227699C94.8432 -0.085092 90.6096 -0.102342 86.418 0.34442C84.6488 0.533014 82.7508 0.871104 81.5134 2.14987C80.3726 3.32858 80.042 5.05583 79.8483 6.68475C79.3837 10.5895 79.4084 14.543 79.7494 18.461C79.9092 20.2992 80.195 22.2605 81.4358 23.6255C82.9296 25.2682 85.3595 25.5827 87.5749 25.7293C91.7734 26.0076 96.0001 26.0565 100.181 25.5764C100.887 25.4953 101.614 25.3872 102.31 25.2038C103.385 24.9203 104.384 24.4575 105.114 23.6375C106.186 22.433 106.434 20.7241 106.602 19.1193C106.973 15.5498 107.167 11.9366 106.79 8.35853V8.3591ZM94.8852 17.9044C94.8852 18.657 94.2752 19.2671 93.5225 19.2671C92.7699 19.2671 92.1598 18.657 92.1598 17.9044V8.09634C92.1598 7.34368 92.7699 6.73363 93.5225 6.73363C94.2752 6.73363 94.8852 7.34368 94.8852 8.09634V17.9044Z" fill="currentColor"/>
<path d="M163.137 19.1575C162.385 19.1575 161.775 18.5474 161.775 17.7948C161.775 17.0421 162.385 16.4321 163.137 16.4321H171.399V9.60932H163.137C162.385 9.60932 161.775 8.99927 161.775 8.24661C161.775 7.49396 162.385 6.8839 163.137 6.8839H171.974V0.0605839H161.749C159.469 0.058284 157.19 0.162931 154.922 0.404424C153.153 0.593018 151.255 0.931108 150.017 2.20987C148.877 3.38858 148.546 5.11583 148.352 6.74476C147.888 10.6495 147.912 14.603 148.253 18.521C148.413 20.3592 148.699 22.3205 149.94 23.6855C151.433 25.3282 153.863 25.6427 156.079 25.7893C158.995 25.9825 161.924 26.0648 164.842 25.9365H171.974V19.1575H163.137H163.137Z" fill="currentColor"/>
<path d="M109 0V10.5656H112.284C113.178 10.5656 113.35 10.8062 113.35 11.5279V25H124.692V11.5279C124.692 10.8062 124.864 10.5656 125.758 10.5656H129.242C130.136 10.5656 130.308 10.8062 130.308 11.5279V25H141.65V11.5279C141.65 10.8062 141.822 10.5656 142.716 10.5656H146V0H109Z" fill="currentColor"/>
<path d="M68.6776 15.1359V0.945312H57.293V25.0371H77.6474V16.0674H69.6781C69.0916 16.0674 68.6776 15.8604 68.6776 15.1359V15.1359Z" fill="currentColor"/>
</svg>
