<svg width="16" height="16" viewBox="0 0 16 16" fill="none" xmlns="http://www.w3.org/2000/svg">
<path d="M3.61719 7.98633C3.61719 6.68801 4.2429 5.42093 5.25186 4.6075C8.04412 2.35885 12.3263 4.40805 12.3263 7.98633C12.3263 9.28471 11.7202 10.5596 10.7073 11.373C7.9698 13.5904 3.61719 11.502 3.61719 7.98633Z" fill="currentColor"/>
<path d="M15.1546 5.34597L13.1367 6.0851C12.9724 6.14377 12.7965 6.06162 12.726 5.90522C12.687 5.81919 12.6478 5.73704 12.6088 5.65101C12.5305 5.49458 12.5814 5.30686 12.73 5.22083L14.5915 4.14148C14.7518 4.04762 14.9591 4.10237 15.0451 4.26662C15.1585 4.4778 15.2602 4.6968 15.3502 4.91971C15.4205 5.08786 15.3267 5.27949 15.1546 5.34597Z" fill="currentColor"/>
<path d="M13.1233 8.55736C13.135 8.46739 13.1428 8.37742 13.1468 8.28356C13.1585 8.11151 13.2915 7.97464 13.4635 7.97075L14.5546 7.95898L15.6222 7.97075C15.806 7.97075 15.9546 8.12327 15.9468 8.30704C15.9351 8.54171 15.9155 8.77632 15.8881 9.01098C15.8647 9.19475 15.6887 9.31603 15.5088 9.28472L13.3892 8.92101C13.2171 8.88977 13.1037 8.72942 13.1233 8.55736Z" fill="currentColor"/>
<path d="M10.0544 12.721C10.1405 12.6858 10.2226 12.6467 10.3047 12.6037C10.4611 12.5255 10.6488 12.5724 10.7349 12.7249L11.8182 14.5825C11.912 14.7428 11.8572 14.9501 11.693 15.0362C11.4779 15.1495 11.2589 15.2512 11.0399 15.3451C10.8717 15.4155 10.6762 15.3255 10.6137 15.1535L9.87452 13.1316C9.81197 12.9674 9.89412 12.7914 10.0544 12.721Z" fill="currentColor"/>
<path d="M7.41902 13.1242C7.50899 13.136 7.60285 13.1438 7.69276 13.1516C7.86876 13.1634 8.00563 13.3002 8.00175 13.4762L7.98998 15.6271C7.98998 15.8109 7.83746 15.9634 7.65369 15.9556C7.4112 15.9438 7.17265 15.9204 6.93409 15.8891C6.75033 15.8618 6.62905 15.6858 6.6643 15.5059L7.05143 13.3902C7.08662 13.2103 7.24308 13.1008 7.41902 13.1242Z" fill="currentColor"/>
<path d="M12.3118 10.8089C12.4056 10.6643 12.5972 10.6252 12.7459 10.7112L14.6034 11.7788C14.7638 11.8688 14.8185 12.08 14.7208 12.2324C14.5917 12.4358 14.4549 12.6313 14.3102 12.823C14.1967 12.9677 13.9856 12.9872 13.8448 12.8699L12.1984 11.4972C12.0654 11.3877 12.038 11.1922 12.1397 11.0553C12.2023 10.9771 12.257 10.8911 12.3118 10.8089Z" fill="currentColor"/>
<path d="M11.5044 3.75467C11.3949 3.88763 11.1993 3.91501 11.0625 3.81333C10.9803 3.75467 10.8982 3.69601 10.8161 3.64126C10.6753 3.54741 10.6362 3.35578 10.7183 3.20717L11.7898 1.34959C11.8798 1.18925 12.091 1.1345 12.2435 1.23227C12.4468 1.36132 12.6423 1.4982 12.834 1.6468C12.9787 1.76022 12.9982 1.97139 12.8809 2.11218L11.5044 3.75467Z" fill="currentColor"/>
<path d="M3.64125 5.13145C3.5474 5.27615 3.35186 5.31525 3.20717 5.22922L1.3535 4.15769C1.19316 4.06383 1.13841 3.85657 1.23618 3.70405C1.36523 3.50069 1.50211 3.30516 1.65071 3.11353C1.76412 2.96884 1.97921 2.94928 2.12 3.06661L3.76249 4.44317C3.89545 4.55267 3.92282 4.74821 3.82115 4.88508C3.75467 4.9633 3.69991 5.04542 3.64125 5.13145Z" fill="currentColor"/>
<path d="M4.45488 12.2023C4.56439 12.0693 4.75992 12.042 4.8968 12.1436C4.97892 12.2023 5.06105 12.261 5.14317 12.3157C5.28786 12.4095 5.32697 12.6012 5.24094 12.7498L4.17331 14.6074C4.08337 14.7677 3.8761 14.8225 3.71967 14.7247C3.51631 14.5956 3.32078 14.4588 3.12916 14.3141C2.98446 14.2007 2.96491 13.9895 3.08223 13.8448L4.45488 12.2023Z" fill="currentColor"/>
<path d="M0.797739 10.6215L2.81566 9.87452C2.97991 9.81197 3.15589 9.89412 3.22628 10.0544C3.26539 10.1405 3.30449 10.2226 3.3436 10.3086C3.42181 10.4651 3.37489 10.6528 3.22237 10.7388L1.3687 11.826C1.20836 11.9199 1.0011 11.8651 0.915055 11.7008C0.801646 11.4897 0.699971 11.2706 0.60611 11.0517C0.53572 10.8796 0.625664 10.684 0.797739 10.6215Z" fill="currentColor"/>
<path d="M0.0628666 6.92323C0.0863304 6.73941 0.262312 6.61819 0.446115 6.64944L2.56571 7.02097C2.73778 7.05228 2.84728 7.20868 2.82773 7.38468C2.816 7.47854 2.80818 7.57628 2.80426 7.67013C2.79253 7.84225 2.65957 7.97912 2.4875 7.983L1.3925 8.00648L0.320973 7.983C0.141081 7.97912 -0.00752612 7.83048 0.000295288 7.64671C0.0120274 7.40422 0.0315809 7.16178 0.0628666 6.92323Z" fill="currentColor"/>
<path d="M4.14538 1.35692C4.05153 1.19659 4.10628 0.989317 4.27052 0.903282C4.48561 0.789874 4.70461 0.688192 4.92361 0.59825C5.09177 0.527856 5.28731 0.617804 5.34988 0.793781L6.08507 2.81561C6.14374 2.97986 6.06165 3.15584 5.9013 3.22233C5.81527 3.25753 5.73313 3.29663 5.651 3.33965C5.49457 3.41786 5.30686 3.37093 5.22083 3.21842L4.14538 1.35692Z" fill="currentColor"/>
<path d="M8.29534 2.81207C8.29534 2.81207 7.9707 2.80425 7.9707 2.44056L7.97465 0.332693C7.97465 0.14889 8.12717 -0.00362709 8.31094 0.0041943C8.54949 0.0159264 8.78415 0.0354799 9.01882 0.0667654C9.20259 0.0902297 9.32381 0.266211 9.29256 0.446103L8.92496 2.5657C8.89366 2.73777 8.7372 2.84727 8.56125 2.82772L8.29534 2.81207Z" fill="currentColor"/>
</svg>
