<svg width="47" height="9" viewBox="0 0 47 9" fill="none" xmlns="http://www.w3.org/2000/svg">
<path d="M5.09968 6.69604C5.14768 6.51604 5.21968 6.37204 5.39968 6.37204C5.57968 6.37204 5.65168 6.51604 5.69968 6.69604L6.25168 8.78404C6.28768 8.90404 6.39568 9.00004 6.52768 9.00004H9.80368C9.97168 9.00004 10.0917 8.88004 10.1037 8.71204L10.5357 0.924039C10.5477 0.744039 10.4037 0.600039 10.2237 0.600039H6.87568C6.70768 0.600039 6.57568 0.708039 6.57568 0.888039L6.46768 4.47604C6.46768 4.63204 6.28768 4.65604 6.23968 4.51204L5.67568 2.62804C5.57968 2.31604 5.21968 2.32804 5.12368 2.62804L4.55968 4.51204C4.51168 4.65604 4.33168 4.63204 4.33168 4.47604L4.22368 0.888039C4.22368 0.708039 4.09168 0.600039 3.92368 0.600039H0.563676C0.383676 0.600039 0.239676 0.744039 0.251676 0.924039L0.683676 8.71204C0.695676 8.88004 0.815676 9.00004 0.983676 9.00004H4.27168C4.40368 9.00004 4.51168 8.90404 4.54768 8.78404L5.09968 6.69604Z" fill="currentColor"/>
<path d="M15.227 6.22804C15.227 5.61604 16.187 5.61604 16.187 6.22804V8.70004C16.187 8.86804 16.319 9.00004 16.487 9.00004H19.847C20.015 9.00004 20.147 8.86804 20.147 8.70004V0.900039C20.147 0.732039 20.015 0.600039 19.847 0.600039H16.487C16.319 0.600039 16.187 0.732039 16.187 0.900039V3.36004C16.187 3.94804 15.227 3.94804 15.227 3.36004V0.900039C15.227 0.732039 15.095 0.600039 14.927 0.600039H11.567C11.399 0.600039 11.267 0.732039 11.267 0.900039V8.70004C11.267 8.86804 11.399 9.00004 11.567 9.00004H14.927C15.095 9.00004 15.227 8.86804 15.227 8.70004V6.22804Z" fill="currentColor"/>
<path d="M25.3407 6.72004C24.6567 6.72004 24.6567 5.82004 25.3407 5.82004H27.8967C28.0647 5.82004 28.1967 5.68804 28.1967 5.52004V4.08004C28.1967 3.91204 28.0527 3.78004 27.8847 3.78004H25.3407C24.6567 3.78004 24.6447 2.88004 25.3287 2.88004H28.1967C28.3647 2.88004 28.4967 2.73604 28.4967 2.56804V0.900039C28.4967 0.732039 28.3647 0.600039 28.1967 0.600039H21.1647C20.9967 0.600039 20.8647 0.732039 20.8647 0.900039V8.70004C20.8647 8.86804 20.9967 9.00004 21.1647 9.00004H28.1967C28.3647 9.00004 28.4967 8.85604 28.4967 8.68804V7.02004C28.4967 6.85204 28.3527 6.72004 28.1847 6.72004H25.3407Z" fill="currentColor"/>
<path d="M33.2641 6.08404C33.2641 5.46004 34.2121 5.46004 34.2121 6.08404V8.70004C34.2121 8.86804 34.3441 9.00004 34.5121 9.00004H37.9441C38.1241 9.00004 38.2681 8.85604 38.2561 8.67604L37.9441 1.80004C37.9081 0.912039 37.3201 0.540039 36.4801 0.540039H31.0201C30.1801 0.540039 29.5801 0.912039 29.5441 1.80004L29.2321 8.67604C29.2201 8.85604 29.3641 9.00004 29.5441 9.00004H32.9641C33.1321 9.00004 33.2641 8.86804 33.2641 8.70004V6.08404ZM33.2641 3.04804C33.2641 2.42404 34.2121 2.42404 34.2121 3.04804V3.80404C34.2121 4.35604 33.2641 4.35604 33.2641 3.80404V3.04804Z" fill="currentColor"/>
<path d="M44.5809 4.29604C44.5809 4.04404 44.6409 3.96004 44.9529 3.96004H46.2129C46.3809 3.96004 46.5129 3.81604 46.5129 3.64804V0.900039C46.5129 0.732039 46.3809 0.600039 46.2129 0.600039H38.9889C38.8209 0.600039 38.6889 0.744039 38.6889 0.912039V3.66004C38.6889 3.82804 38.8329 3.96004 39.0009 3.96004H40.2489C40.5609 3.96004 40.6209 4.04404 40.6209 4.29604V8.70004C40.6209 8.86804 40.7529 9.00004 40.9209 9.00004H44.2809C44.4489 9.00004 44.5809 8.86804 44.5809 8.70004V4.29604Z" fill="currentColor"/>
</svg>
